<?xml version="1.0" encoding="UTF-8" standalone="no"?>
<svg width="126px" height="51px" viewBox="0 0 126 51" version="1.1" xmlns="http://www.w3.org/2000/svg" xmlns:xlink="http://www.w3.org/1999/xlink">
    <title>Belmond logo black</title>
    <desc>Created with Sketch.</desc>
    <defs>
        <polygon id="path-1" points="0 0.095878125 0 14.5642219 12.8403562 14.5642219 12.8403562 0.095878125 7.62329653e-21 0.095878125"></polygon>
        <polygon id="path-3" points="0.14664375 15.1875 15.2182687 15.1875 15.2182688 0.1159875 0.14664375 0.1159875 0.14664375 15.1875"></polygon>
        <polygon id="path-5" points="24.6854531 0.10884375 0.032484375 0.10884375 0.032484375 24.871586 24.6854531 24.871586 24.6854531 0.10884375"></polygon>
    </defs>
    <g id="Page-1" stroke="none" stroke-width="1" fill="none" fill-rule="evenodd">
        <g id="Global-Nav-D-Black" transform="translate(-658.000000, -38.000000)">
            <g id="Belmond-logo-black" transform="translate(658.000000, 38.000000)">
                <path d="M7.08865313,41.8490437 C8.59502812,41.8490437 10.2049031,41.2094812 10.2049031,39.4142625 L10.2049031,39.3751687 C10.2049031,38.0282625 9.07399688,37.22445 7.17977813,37.22445 L1.87596563,37.22445 L1.87596563,41.8490437 L7.08865313,41.8490437 Z M7.52374688,48.0888562 C9.63396563,48.0888562 10.9451531,47.1635437 10.9451531,45.674325 L10.9451531,45.6369187 C10.9451531,43.6501687 8.59952813,43.3537312 7.20115313,43.3537312 L1.87596563,43.3537312 L1.87596563,48.0888562 L7.52374688,48.0888562 Z M0.297028125,49.596075 L0.297028125,35.72145 L7.20115312,35.72145 C8.74971563,35.72145 10.0504969,36.1706062 10.8635906,36.98595 C11.4871219,37.6089187 11.8032469,38.3815125 11.8032469,39.2817937 L11.8032469,39.320325 C11.8032469,40.6495125 11.1833719,41.7241687 10.0406531,42.4078875 C11.6817469,43.0277625 12.5434969,44.1333562 12.5434969,45.6369187 L12.5434969,45.674325 C12.5434969,48.0565125 10.5570281,49.596075 7.48296563,49.596075 L0.297028125,49.596075 Z" id="Fill-1" fill="#ffffff"></path>
                <g id="Group-5" transform="translate(0.000000, 35.328656)">
                    <mask id="mask-2" fill="white">
                        <use xlink:href="#path-1"></use>
                    </mask>
                    <g id="Clip-4"></g>
                    <path d="M2.172825,8.32187812 L7.2010125,8.32187812 C8.488575,8.32187812 10.6482938,8.58006562 10.6482938,10.3080656 L10.6482938,10.3454719 C10.6482938,11.6715656 9.47998125,12.4632844 7.52360625,12.4632844 L2.172825,12.4632844 L2.172825,8.32187812 Z M2.172825,2.19259688 L7.17991875,2.19259688 C8.88795,2.19259688 9.90804375,2.88559688 9.90804375,4.04659688 L9.90804375,4.08540938 C9.90804375,6.06934688 7.7500125,6.22347188 7.08879375,6.22347188 L2.172825,6.22347188 L2.172825,2.19259688 Z M7.2010125,0.095878125 L0.5938875,0.095878125 L-0.0001125,0.095878125 L-0.0001125,0.689596875 L-0.0001125,13.9705031 L-0.0001125,14.5642219 L0.5938875,14.5642219 L7.48310625,14.5642219 C10.6873875,14.5642219 12.8403562,12.8688469 12.8403562,10.3454719 L12.8403562,10.3080656 C12.8403562,8.85653437 12.0733875,7.72056563 10.6513875,7.02222188 C11.5944187,6.28703438 12.1001062,5.24472188 12.1001062,3.99175312 L12.1001062,3.95322188 C12.1001062,2.98487812 11.7451687,2.11834687 11.0732625,1.44700312 C10.2044812,0.575971875 8.82916875,0.095878125 7.2010125,0.095878125 L7.2010125,0.095878125 Z M1.57910625,13.0570031 L7.52360625,13.0570031 C9.80060625,13.0570031 11.2420125,12.0160969 11.2420125,10.3454719 L11.2420125,10.3080656 C11.2420125,8.67625312 9.81860625,7.72815937 7.2010125,7.72815937 L1.57910625,7.72815937 L1.57910625,13.0570031 L1.57910625,13.0570031 Z M1.57910625,6.81719062 L7.08879375,6.81719062 C9.078075,6.81719062 10.5017625,5.85165938 10.5017625,4.08540938 L10.5017625,4.04659688 C10.5017625,2.58747187 9.305325,1.59887812 7.17991875,1.59887812 L1.57910625,1.59887812 L1.57910625,6.81719062 L1.57910625,6.81719062 Z M7.2010125,0.689596875 C8.70091875,0.689596875 9.91310625,1.12469062 10.6533563,1.86690938 C11.2034812,2.41675312 11.5063875,3.11762812 11.5063875,3.95322187 L11.5063875,3.99175312 C11.5063875,5.79119062 10.329075,6.70469062 9.249075,7.13978437 C10.842075,7.55715937 12.2463563,8.46840937 12.2463563,10.3080656 L12.2463563,10.3454719 C12.2463563,12.5636906 10.3501688,13.9705031 7.48310625,13.9705031 L0.5938875,13.9705031 L0.5938875,0.689596875 L7.2010125,0.689596875 L7.2010125,0.689596875 Z" id="Fill-3" fill="#ffffff" mask="url(#mask-2)"></path>
                </g>
                <polygon id="Fill-6" fill="#ffffff" points="20.5351031 49.5960469 20.5351031 35.7214219 31.1356969 35.7214219 31.1356969 37.2244219 22.1126344 37.2244219 22.1126344 41.8490156 30.5641969 41.8490156 30.5641969 43.3537031 22.1126344 43.3537031 22.1126344 48.0888281 31.2344156 48.0888281 31.2344156 49.5960469"></polygon>
                <path d="M31.4325844,35.4245063 L30.8388656,35.4245063 L20.8319906,35.4245063 L20.2382719,35.4245063 L20.2382719,36.018225 L20.2382719,49.2991313 L20.2382719,49.89285 L20.8319906,49.89285 L30.9375844,49.89285 L31.5313031,49.89285 L31.5313031,49.2991313 L31.5313031,48.3856313 L31.5313031,47.7919125 L30.9375844,47.7919125 L22.4095219,47.7919125 L22.4095219,43.6505063 L30.2670844,43.6505063 L30.8610844,43.6505063 L30.8610844,43.0567875 L30.8610844,42.1458188 L30.8610844,41.5521 L30.2670844,41.5521 L22.4095219,41.5521 L22.4095219,37.521225 L30.8388656,37.521225 L31.4325844,37.521225 L31.4325844,36.9275063 L31.4325844,36.018225 L31.4325844,35.4245063 Z M30.8388656,36.018225 L30.8388656,36.9275063 L21.8158031,36.9275063 L21.8158031,42.1458187 L30.2670844,42.1458187 L30.2670844,43.0567875 L21.8158031,43.0567875 L21.8158031,48.3856313 L30.9375844,48.3856313 L30.9375844,49.2991313 L20.8319906,49.2991313 L20.8319906,36.018225 L30.8388656,36.018225 Z" id="Fill-8" fill="#ffffff"></path>
                <polygon id="Fill-10" fill="#ffffff" points="39.5039531 49.5960469 39.5039531 35.7214219 41.0848594 35.7214219 41.0848594 48.0888281 50.2896094 48.0888281 50.2896094 49.5960469"></polygon>
                <path d="M41.3818031,35.4245063 L40.7880844,35.4245063 L39.8008969,35.4245063 L39.2071781,35.4245063 L39.2071781,36.018225 L39.2071781,49.2991313 L39.2071781,49.89285 L39.8008969,49.89285 L49.9925531,49.89285 L50.5865531,49.89285 L50.5865531,49.2991313 L50.5865531,48.3856313 L50.5865531,47.7919125 L49.9925531,47.7919125 L41.3818031,47.7919125 L41.3818031,36.018225 L41.3818031,35.4245063 Z M40.7880844,36.018225 L40.7880844,48.3856313 L49.9925531,48.3856313 L49.9925531,49.2991313 L39.8008969,49.2991313 L39.8008969,36.018225 L40.7880844,36.018225 Z" id="Fill-12" fill="#ffffff"></path>
                <polygon id="Fill-14" fill="#ffffff" points="67.8389344 49.5960469 67.8389344 38.7201094 62.8571531 45.9637031 57.8472469 38.7161719 57.8472469 49.5960469 56.3014969 49.5960469 56.3014969 35.7214219 57.6860906 35.7214219 62.8599656 43.3441406 68.0321531 35.7214219 69.4144969 35.7214219 69.4144969 49.5960469"></polygon>
                <path d="M69.7112719,35.4245063 L69.1175531,35.4245063 L68.1894281,35.4245063 L67.8747094,35.4245063 L67.6980844,35.6849438 L62.8597406,42.815475 L58.0199906,35.6849438 L57.8433656,35.4245063 L57.5286469,35.4245063 L56.5982719,35.4245063 L56.0045531,35.4245063 L56.0045531,36.018225 L56.0045531,49.2991313 L56.0045531,49.89285 L56.5982719,49.89285 L57.5503031,49.89285 L58.1443031,49.89285 L58.1443031,49.2991313 L58.1443031,39.6680062 L62.3681156,45.7781625 L62.8577719,46.4869125 L63.3457406,45.7773187 L67.5419906,39.6758813 L67.5419906,49.2991313 L67.5419906,49.89285 L68.1357094,49.89285 L69.1175531,49.89285 L69.7112719,49.89285 L69.7112719,49.2991313 L69.7112719,36.018225 L69.7112719,35.4245063 Z M69.1175531,36.018225 L69.1175531,49.2991313 L68.1357094,49.2991313 L68.1357094,37.7645062 L62.8563656,45.4406625 L57.5503031,37.7645062 L57.5503031,49.2991313 L56.5982719,49.2991313 L56.5982719,36.018225 L57.5286469,36.018225 L62.8600219,43.872975 L68.1894281,36.018225 L69.1175531,36.018225 Z" id="Fill-16" fill="#ffffff"></path>
                <polygon id="Fill-18" fill="#ffffff" points="105.182831 49.5960469 96.2742375 38.3511094 96.2742375 49.5960469 94.7284875 49.5960469 94.7284875 35.7214219 96.0967688 35.7214219 104.823113 46.7194219 104.823113 35.7214219 106.364925 35.7214219 106.364925 49.5960469"></polygon>
                <path d="M106.661869,35.4245063 L106.06815,35.4245063 L105.120056,35.4245063 L104.526056,35.4245063 L104.526056,36.018225 L104.526056,45.8676 L96.4187438,35.649225 L96.2404313,35.4245063 L95.9535563,35.4245063 L95.0254312,35.4245063 L94.4317125,35.4245063 L94.4317125,36.018225 L94.4317125,49.2991313 L94.4317125,49.89285 L95.0254312,49.89285 L95.9774625,49.89285 L96.5711813,49.89285 L96.5711813,49.2991313 L96.5711813,39.2039438 L104.861025,49.6681313 L105.039338,49.89285 L105.326494,49.89285 L106.06815,49.89285 L106.661869,49.89285 L106.661869,49.2991313 L106.661869,36.018225 L106.661869,35.4245063 Z M106.06815,36.018225 L106.06815,49.2991313 L105.326494,49.2991313 L95.9774625,37.4981625 L95.9774625,49.2991313 L95.0254312,49.2991313 L95.0254312,36.018225 L95.9535563,36.018225 L105.120056,47.5714125 L105.120056,36.018225 L106.06815,36.018225 Z" id="Fill-20" fill="#ffffff"></path>
                <path d="M118.27305,48.0887156 C121.650019,48.0887156 124.008581,45.8710594 124.008581,42.6957469 L124.008581,42.6583406 C124.008581,39.5097469 121.5963,37.2243094 118.27305,37.2243094 L114.853894,37.2243094 L114.853894,48.0887156 L118.27305,48.0887156 Z M113.27355,49.5959344 L113.27355,35.7213094 L118.27305,35.7213094 C122.533425,35.7213094 125.625769,38.6235281 125.625769,42.6217781 L125.625769,42.6583406 C125.625769,46.6782469 122.533425,49.5959344 118.27305,49.5959344 L113.27355,49.5959344 Z" id="Fill-22" fill="#ffffff"></path>
                <path d="M115.150725,37.5212531 L118.273162,37.5212531 C121.474913,37.5212531 123.711412,39.6337219 123.711412,42.6585656 L123.711412,42.6956906 C123.711412,45.6960656 121.474913,47.7919406 118.273162,47.7919406 L115.150725,47.7919406 L115.150725,37.5212531 Z M118.273162,35.4245344 L113.570381,35.4245344 L112.976663,35.4245344 L112.976663,36.0182531 L112.976663,49.2991594 L112.976663,49.8928781 L113.570381,49.8928781 L118.273162,49.8928781 C120.423319,49.8928781 122.378287,49.1523469 123.777787,47.8079719 C125.160975,46.4796281 125.9226,44.6506594 125.9226,42.6585656 L125.9226,42.6217219 C125.9226,38.4513469 122.705381,35.4245344 118.273162,35.4245344 L118.273162,35.4245344 Z M114.557006,48.3856594 L118.273162,48.3856594 C121.970756,48.3856594 124.305413,45.8636906 124.305413,42.6956906 L124.305413,42.6585656 C124.305413,39.5091281 121.970756,36.9275344 118.273162,36.9275344 L114.557006,36.9275344 L114.557006,48.3856594 L114.557006,48.3856594 Z M118.273162,36.0182531 C122.447756,36.0182531 125.3286,38.8819406 125.3286,42.6217219 L125.3286,42.6585656 C125.3286,46.3944094 122.447756,49.2991594 118.273162,49.2991594 L113.570381,49.2991594 L113.570381,36.0182531 L118.273162,36.0182531 L118.273162,36.0182531 Z" id="Fill-24" fill="#ffffff"></path>
                <path d="M82.4949563,36.9648 C79.3632375,36.9648 76.8243938,39.5036438 76.8243938,42.6353625 C76.8243938,45.7670813 79.3632375,48.3053625 82.4949563,48.3053625 C85.6263938,48.3053625 88.164675,45.7670813 88.164675,42.6353625 C88.164675,39.5036438 85.6263938,36.9648 82.4949563,36.9648 M89.7337687,42.6992062 C89.7337687,46.697175 86.492925,49.9380187 82.4949563,49.9380187 C78.4972688,49.9380187 75.2561438,46.697175 75.2561438,42.6992062 C75.2561438,38.7012375 78.4972688,35.4601125 82.4949563,35.4601125 C86.492925,35.4601125 89.7337687,38.7012375 89.7337687,42.6992062" id="Fill-26" fill="#ffffff"></path>
                <g id="Group-30" transform="translate(74.812500, 35.047406)">
                    <mask id="mask-4" fill="white">
                        <use xlink:href="#path-3"></use>
                    </mask>
                    <g id="Clip-29"></g>
                    <path d="M7.68245625,1.91739375 L7.68245625,1.62039375 C4.3864875,1.620675 1.715175,4.2919875 1.71489375,7.58795625 C1.715175,10.883925 4.38676875,13.554675 7.68245625,13.5549563 C10.9778625,13.554675 13.6488938,10.8836437 13.649175,7.58795625 C13.6488938,4.29226875 10.9781438,1.620675 7.68245625,1.62039375 L7.68245625,1.91739375 L7.68245625,2.21439375 C9.16689375,2.214675 10.5084563,2.81514375 11.4815812,3.78826875 C12.454425,4.761675 13.055175,6.1032375 13.0554562,7.58795625 C13.055175,9.072675 12.454425,10.4142375 11.4815812,11.3873625 C10.5084563,12.3602063 9.16689375,12.9609563 7.68245625,12.9612375 C6.1977375,12.9609563 4.856175,12.3602063 3.88276875,11.3873625 C2.90964375,10.4142375 2.309175,9.072675 2.30889375,7.58795625 C2.309175,6.1032375 2.90964375,4.761675 3.88276875,3.78826875 C4.856175,2.81514375 6.1977375,2.214675 7.68245625,2.21439375 L7.68245625,1.91739375 Z M14.9212688,7.6518 L14.62455,7.6518 C14.6242688,9.56964375 13.8480188,11.3032687 12.5911125,12.5604562 C11.333925,13.8173625 9.6003,14.5933312 7.68245625,14.5936125 C5.76489375,14.5933312 4.03126875,13.8173625 2.7738,12.5604562 C1.517175,11.3032687 0.74064375,9.56964375 0.7403625,7.6518 C0.74064375,5.733675 1.517175,4.00005 2.7738,2.74314375 C4.03126875,1.4862375 5.76489375,0.7099875 7.68245625,0.70970625 C9.6003,0.7099875 11.333925,1.4862375 12.5911125,2.74314375 C13.8480188,4.00005 14.6242688,5.733675 14.62455,7.6518 L14.9212688,7.6518 L15.2182687,7.6518 C15.2179875,3.4898625 11.8443938,0.11626875 7.68245625,0.1159875 C3.5208,0.11626875 0.146925,3.48958125 0.14664375,7.6518 C0.146925,11.8140187 3.5208,15.1873312 7.68245625,15.1876125 C11.8443938,15.1873312 15.2179875,11.8137375 15.2182687,7.6518 L14.9212688,7.6518 Z" id="Fill-28" fill="#ffffff" mask="url(#mask-4)"></path>
                </g>
                <g id="Group-33" transform="translate(50.625000, 0.172406)">
                    <mask id="mask-6" fill="white">
                        <use xlink:href="#path-5"></use>
                    </mask>
                    <g id="Clip-32"></g>
                    <path d="M2.97126563,14.5474031 C3.60210938,14.8072781 4.33082813,15.0412781 5.14757813,15.2460281 C5.37398438,14.8084031 5.62204688,14.3609344 5.88867188,13.9098094 C5.46342187,13.6150594 5.05195313,13.3113094 4.65904688,13.0030594 C4.00007812,13.5318094 3.43504688,14.0490281 2.97126563,14.5474031 L2.97126563,14.5474031 Z M7.14585937,16.5839344 C6.62217188,16.5004031 6.11901563,16.4059031 5.64314063,16.3012781 C5.27892188,17.0614969 4.99457812,17.7713719 4.79348438,18.4216219 C5.47973438,18.3819656 6.23742188,18.2767781 7.05670313,18.1074656 C7.07048437,17.6169656 7.10057812,17.1070594 7.14585937,16.5839344 L7.14585937,16.5839344 Z M4.67029688,11.8381219 C5.06404688,11.5428094 5.48029688,11.2486219 5.91398438,10.9586531 C5.66001563,10.5103406 5.42010938,10.0575281 5.19707813,9.60640312 C4.37723438,9.79652813 3.64542188,10.0173094 3.01148438,10.2656531 C3.47189063,10.7783719 4.02735938,11.3048719 4.67029688,11.8381219 L4.67029688,11.8381219 Z M7.22292187,8.30787187 C7.18692188,7.78418437 7.16667188,7.27343437 7.16217188,6.78321562 C6.34710937,6.59927813 5.59139063,6.48059063 4.90598438,6.42855938 C5.09442188,7.08162188 5.36470313,7.79571562 5.71289062,8.56127813 C6.20817188,8.46368437 6.71357813,8.37874688 7.22292187,8.30787187 L7.22292187,8.30787187 Z M4.87560937,21.7153406 C5.31914063,22.0761844 6.17582813,22.0112156 7.25948438,21.5443406 C7.13095312,20.8111219 7.06035937,19.9749656 7.04910938,19.0488094 L7.04264063,19.0502156 L7.04264063,19.0426219 C6.14039063,19.2200906 5.30676563,19.3224656 4.55385938,19.3477781 C4.31479687,20.5149656 4.42645313,21.3494344 4.87560937,21.7153406 L4.87560937,21.7153406 Z M7.54860938,13.5495281 C7.48476563,13.4575594 7.42148438,13.3658719 7.35960938,13.2744656 C7.28114063,13.3945594 7.20323438,13.5163406 7.12504688,13.6403719 C7.24626562,13.7196844 7.36889063,13.7984344 7.49151563,13.8760594 C7.50951563,13.7717156 7.52835938,13.6631531 7.54860938,13.5495281 L7.54860938,13.5495281 Z M6.64832813,14.4208406 C6.44273437,14.7701531 6.24895313,15.1166531 6.06867188,15.4575281 C6.44245313,15.5357156 6.83254688,15.6077156 7.23614062,15.6726844 C7.26623438,15.4060594 7.30054688,15.1338094 7.33935938,14.8581844 C7.10760938,14.7161531 6.87698438,14.5699031 6.64832813,14.4208406 L6.64832813,14.4208406 Z M10.0306406,0.867121875 L10.0303594,0.867121875 C9.96370313,0.867121875 9.89789063,0.874153125 9.83432813,0.887934375 C9.26957813,1.01084062 8.79454688,1.70440312 8.48123438,2.85359062 C9.14189063,3.21555937 9.83939063,3.68243437 10.5636094,4.24690313 L10.5655781,4.24296562 L10.5717656,4.24830937 C11.0001094,3.42537188 11.4405469,2.70874688 11.8863281,2.10940312 C11.2116094,1.30559063 10.5593906,0.867121875 10.0306406,0.867121875 L10.0306406,0.867121875 Z M11.2951406,4.84034062 C11.6692031,5.15505937 12.0502969,5.49621563 12.4339219,5.85959062 C12.8144531,5.51224687 13.2014531,5.17812187 13.5904219,4.86171562 C13.2245156,4.10740312 12.8462344,3.44224688 12.4606406,2.87468437 C12.0677344,3.43127812 11.6773594,4.08940312 11.2951406,4.84034062 L11.2951406,4.84034062 Z M13.0490156,2.12037187 C13.4866406,2.73152812 13.9130156,3.45490312 14.3227969,4.27952812 L14.3284219,4.27502812 L14.3317969,4.28205937 C15.0706406,3.72912187 15.7771406,3.27546562 16.4420156,2.92784062 C16.1497969,1.77330937 15.6874219,1.07074687 15.1235156,0.936590625 C14.5553906,0.801028125 13.8266719,1.22965312 13.0490156,2.12037187 L13.0490156,2.12037187 Z M16.6265156,3.86665312 C16.0277344,4.19909062 15.3907031,4.62209063 14.7238594,5.13143437 C14.9266406,5.58452813 15.1212656,6.05730937 15.3054844,6.54359063 C15.8002031,6.39593437 16.2935156,6.26318437 16.7800781,6.14702813 C16.7775469,5.30496563 16.7260781,4.54165313 16.6265156,3.86665312 L16.6265156,3.86665312 Z M7.38464063,10.0353094 C7.35089063,9.74955937 7.32192188,9.47927812 7.29745313,9.22052812 C6.90201563,9.27621563 6.50939063,9.34062187 6.12239063,9.41346563 C6.29929688,9.76334062 6.48660938,10.1134969 6.68292188,10.4616844 C6.91410938,10.3171219 7.14810938,10.1753719 7.38295313,10.0372781 L7.38464063,10.0353094 Z M7.51795313,11.0210906 C7.39307813,11.0967469 7.26820313,11.1735281 7.14473438,11.2508719 C7.22010938,11.3757469 7.29689063,11.5006219 7.37451563,11.6249344 C7.43976563,11.5329656 7.50473438,11.4418406 7.56998438,11.3518406 C7.55170313,11.2401844 7.53454688,11.1302156 7.51795313,11.0210906 L7.51795313,11.0210906 Z M5.40885938,12.4281844 C5.71795313,12.6658406 6.03773438,12.8998406 6.36651563,13.1290594 C6.51501563,12.8950594 6.66239063,12.6680906 6.81201563,12.4450594 C6.66407813,12.2141531 6.51867188,11.9812781 6.37748437,11.7484031 C6.04279688,11.9731219 5.71907813,12.2003719 5.40885938,12.4281844 L5.40885938,12.4281844 Z M7.64704688,2.44549687 C7.88301563,1.64955937 8.18198438,1.10280937 8.49754688,0.728184375 C7.52217188,1.04712187 6.60782813,1.47884062 5.76773438,2.00730937 C6.31223438,2.00112187 6.94167188,2.14455937 7.64704688,2.44549687 L7.64704688,2.44549687 Z M5.04857813,3.13624687 C4.59239063,3.49202813 4.46554687,4.32424687 4.68351563,5.49846562 C5.43642187,5.53727812 6.26807813,5.65427812 7.16639063,5.84805937 L7.16639063,5.84159062 L7.17257812,5.84327812 C7.20210938,4.91262187 7.28817187,4.07674687 7.42935938,3.34830938 C6.35554687,2.86399687 5.50026562,2.78327812 5.04857813,3.13624687 L5.04857813,3.13624687 Z M14.9075156,24.1037156 C15.4711406,23.9810906 15.9461719,23.2866844 16.2603281,22.1349656 C15.6013594,21.7741219 14.9041406,21.3083719 14.1785156,20.7439031 L14.1754219,20.7500906 L14.1686719,20.7450281 C13.7431406,21.5626219 13.3035469,22.2775594 12.8569219,22.8794344 C13.6165781,23.7867469 14.3396719,24.2271844 14.9075156,24.1037156 L14.9075156,24.1037156 Z M23.1745781,15.0660281 C23.6372344,15.7292156 23.8791094,16.2925594 23.9803594,16.7656219 C24.3172969,15.8524031 24.5476406,14.8950281 24.6609844,13.9109344 C24.3575156,14.2878094 23.8875469,14.6821219 23.1745781,15.0660281 L23.1745781,15.0660281 Z M23.2192969,10.1244656 C23.9260781,10.5227156 24.3887344,10.9268719 24.6854531,11.3099344 C24.6427031,10.8686531 24.5774531,10.4254031 24.4854844,9.98159062 C24.3755156,9.45002812 24.2298281,8.93534062 24.0574219,8.43584063 C23.9477344,8.90749687 23.6960156,9.46774687 23.2192969,10.1244656 L23.2192969,10.1244656 Z M23.0291719,17.7502781 C23.2853906,17.2308094 23.0390156,16.4261531 22.3356094,15.4637156 C21.6473906,15.7531219 20.8480781,16.0084969 19.9486406,16.2259031 L19.9525781,16.2343406 L19.9447031,16.2357469 C20.3193281,17.0806219 20.6028281,17.8689656 20.7915469,18.5892469 C21.9832031,18.5628094 22.7746406,18.2674969 23.0291719,17.7502781 L23.0291719,17.7502781 Z M3.75454688,5.49171562 C3.62095313,4.66905938 3.65357812,4.04524687 3.77564063,3.56965312 C3.04945312,4.26968437 2.41354688,5.05437187 1.87889063,5.90430938 C2.31904688,5.68774687 2.92232813,5.52799688 3.75454688,5.49171562 L3.75454688,5.49171562 Z M12.2696719,23.5991531 C11.7648281,24.1560281 11.2630781,24.5464031 10.7759531,24.7705594 C11.7406406,24.8948719 12.7309219,24.9066844 13.7318906,24.7936219 C13.2512344,24.5613094 12.7624219,24.1653094 12.2696719,23.5991531 L12.2696719,23.5991531 Z M1.52142188,14.8646531 C0.794953125,14.4565594 0.327796875,14.0419969 0.032484375,13.6496531 C0.074953125,14.0976844 0.140484375,14.5479656 0.233578125,14.9988094 C0.346640625,15.5452781 0.497390625,16.0740281 0.676546875,16.5867469 C0.781453125,16.1074969 1.03289063,15.5368406 1.52142188,14.8646531 L1.52142188,14.8646531 Z M12.4747031,1.39052812 C12.9848906,0.828590625 13.4911406,0.437090625 13.9827656,0.214903125 C13.0068281,0.086090625 12.0033281,0.072028125 10.9894219,0.186215625 C11.4773906,0.416840625 11.9735156,0.816778125 12.4747031,1.39052812 L12.4747031,1.39052812 Z M17.0942344,22.5430594 C16.8636094,23.3215594 16.5725156,23.8629656 16.2656719,24.2373094 C17.2171406,23.9223094 18.1103906,23.5009969 18.9324844,22.9863094 C18.3981094,22.9849031 17.7813281,22.8364031 17.0942344,22.5430594 L17.0942344,22.5430594 Z M11.6950781,22.8693094 C11.2568906,22.2595594 10.8293906,21.5356219 10.4184844,20.7093094 L10.4131406,20.7138094 L10.4100469,20.7073406 C9.67232813,21.2605594 8.96582813,21.7133719 8.30179688,22.0590281 C8.59204688,23.2160906 9.05414062,23.9203406 9.61832813,24.0547781 C10.1808281,24.1894969 10.9171406,23.7619969 11.6950781,22.8693094 L11.6950781,22.8693094 Z M2.10501563,14.1424031 C2.59945313,13.5835594 3.21117188,13.0055906 3.93032813,12.4172156 L3.92357813,12.4115906 L3.92751563,12.4084969 C3.22776563,11.8164656 2.62785938,11.2292156 2.13764063,10.6557469 C1.07620313,11.1971531 0.493453125,11.8049344 0.487828125,12.3851531 C0.482203125,12.9639656 1.05342188,13.5815906 2.10501563,14.1424031 L2.10501563,14.1424031 Z M16.7632031,7.09202812 C16.3846406,7.18624687 16.0021406,7.29059063 15.6185156,7.40421562 C15.7076719,7.66015312 15.7945781,7.92030938 15.8783906,8.18271563 C16.1407969,8.20915312 16.4099531,8.24037187 16.6892344,8.27693438 C16.7238281,7.87249687 16.7482969,7.47649688 16.7632031,7.09202812 L16.7632031,7.09202812 Z M1.56782813,9.92252813 C1.09054687,9.23684062 0.850078125,8.65887187 0.755296875,8.17652812 C0.405421875,9.11505938 0.167203125,10.1002781 0.053859375,11.1141844 C0.356203125,10.7260594 0.831796875,10.3185281 1.56782813,9.92252813 L1.56782813,9.92252813 Z M3.83723438,18.4328719 C4.03973438,17.7145594 4.33954688,16.9293094 4.73245313,16.0886531 L4.72570313,16.0872469 L4.72823438,16.0821844 C3.83245313,15.8487469 3.03651563,15.5790281 2.35335938,15.2775281 C1.63195313,16.2250594 1.37123438,17.0249344 1.61760938,17.5497469 C1.86370313,18.0739969 2.64614063,18.3833719 3.83723438,18.4328719 L3.83723438,18.4328719 Z M13.4469844,20.1504656 C13.0706719,19.8326531 12.6895781,19.4912156 12.3079219,19.1295281 C11.9344219,19.4715281 11.5471406,19.8053719 11.1514219,20.1274031 C11.5178906,20.8828406 11.8961719,21.5482781 12.2820469,22.1144344 C12.6766406,21.5553094 13.0664531,20.8977469 13.4469844,20.1504656 L13.4469844,20.1504656 Z M7.46001563,22.4516531 C6.75717188,22.7371219 6.13110938,22.8707156 5.59167188,22.8586219 C6.42557813,23.4028406 7.32473438,23.8469344 8.26973438,24.1785281 C7.96401563,23.7971531 7.67826563,23.2464656 7.46001563,22.4516531 L7.46001563,22.4516531 Z M3.62517187,19.3368094 C2.79407813,19.2839344 2.19332813,19.1129344 1.75710938,18.8879344 C2.28051563,19.7550281 2.90376563,20.5464656 3.60914063,21.2495906 C3.49720313,20.7728719 3.47723438,20.1510281 3.62517187,19.3368094 L3.62517187,19.3368094 Z M20.9870156,19.4971219 C21.1169531,20.2967156 21.0905156,20.9098406 20.9768906,21.3800906 C21.6814219,20.6958094 22.3012969,19.9319344 22.8238594,19.1053406 C22.3873594,19.3114969 21.7936406,19.4619656 20.9870156,19.4971219 L20.9870156,19.4971219 Z M1.71492187,7.23884063 C1.45926563,7.75746562 1.70479688,8.56212187 2.40623438,9.52484062 C3.09417188,9.23543437 3.89348438,8.98034062 4.79292188,8.76293437 L4.78870312,8.75449687 L4.79685938,8.75280937 C4.42223438,7.90821562 4.13845313,7.11959062 3.94973438,6.39959062 C2.76032813,6.42602812 1.96973438,6.72162188 1.71492187,7.23884063 L1.71492187,7.23884063 Z M20.0740781,13.1490281 C19.6837031,13.4423719 19.2657656,13.7374031 18.8253281,14.0307469 C19.0840781,14.4863719 19.3248281,14.9389031 19.5442031,15.3824344 C20.3634844,15.1925906 21.0952969,14.9715281 21.7300781,14.7231844 C21.2713594,14.2124344 20.7170156,13.6853719 20.0740781,13.1490281 L20.0740781,13.1490281 Z M22.6039219,14.3330906 C23.6653594,13.7916844 24.2478281,13.1850281 24.2534531,12.6067781 C24.2590781,12.0282469 23.6878594,11.4097781 22.6359844,10.8467156 C22.1359219,11.4114656 21.5258906,11.9885906 20.8146094,12.5693719 L20.8196719,12.5733094 L20.8143281,12.5775281 C21.5157656,13.1737781 22.1151094,13.7618719 22.6039219,14.3330906 L22.6039219,14.3330906 Z M17.5186406,16.6809656 C17.5546406,17.2032469 17.5748906,17.7137156 17.5791094,18.2050594 C18.4000781,18.3889969 19.1555156,18.5076844 19.8355781,18.5599969 C19.6468594,17.9069344 19.3768594,17.1928406 19.0286719,16.4275594 C18.5333906,16.5254344 18.0279844,16.6100906 17.5186406,16.6809656 L17.5186406,16.6809656 Z M17.2835156,2.53521562 C17.9810156,2.25255937 18.6031406,2.11868437 19.1394844,2.12880937 C18.3081094,1.58515312 17.4117656,1.14077812 16.4692969,0.808340625 C16.7761406,1.18887188 17.0632969,1.73955937 17.2835156,2.53521562 L17.2835156,2.53521562 Z M8.24892187,9.54255938 C8.34764062,9.48771562 8.44523438,9.43455937 8.54170313,9.38252812 C8.57235938,9.27762187 8.60470313,9.17046562 8.63873438,9.05993437 C8.49248438,9.07455937 8.34764062,9.08974687 8.20476563,9.10577813 C8.21798438,9.24752812 8.23260938,9.39293437 8.24892187,9.54255938 L8.24892187,9.54255938 Z M20.9062969,6.55596562 C20.7018281,7.27568438 20.4017344,8.06009062 20.0099531,8.89821562 L20.0167031,8.89962188 L20.0133281,8.90665312 C20.9085469,9.14009062 21.7039219,9.40952812 22.3879219,9.71130937 C23.1087656,8.76237188 23.3697656,7.96249687 23.1239531,7.43937187 C22.8778594,6.91455937 22.0959844,6.60546562 20.9062969,6.55596562 L20.9062969,6.55596562 Z M21.1180781,5.65202812 C21.9322969,5.70377813 22.5262969,5.86887187 22.9599844,6.08768437 C22.4438906,5.23296562 21.8304844,4.45277813 21.1372031,3.75752812 C21.2454844,4.23143437 21.2629219,4.84821562 21.1180781,5.65202812 L21.1180781,5.65202812 Z M19.6932656,21.8525906 C20.1491719,21.4965281 20.2757344,20.6645906 20.0580469,19.4900906 C19.3118906,19.4512781 18.4802344,19.3339969 17.5751719,19.1399344 L17.5751719,19.1475281 L17.5695469,19.1464031 C17.5417031,20.0700281 17.4553594,20.9056219 17.3124844,21.6405281 C18.3860156,22.1248406 19.2407344,22.2055594 19.6932656,21.8525906 L19.6932656,21.8525906 Z M19.8656719,3.27377812 C19.4232656,2.91293438 18.5671406,2.97734062 17.4840469,3.44224688 C17.6114531,4.17799687 17.6812031,5.01471562 17.6924531,5.94002812 L17.6989219,5.93862187 L17.6986406,5.94621563 C18.6014531,5.76874687 19.4359219,5.66637187 20.1896719,5.64105937 C20.4264844,4.47330938 20.3145469,3.63912187 19.8656719,3.27377812 L19.8656719,3.27377812 Z M21.7697344,10.4411531 C21.1388906,10.1812781 20.4104531,9.94755938 19.5939844,9.74280937 C19.3698281,10.1764969 19.1223281,10.6234031 18.8548594,11.0781844 C19.2857344,11.3765906 19.6977656,11.6794969 20.0858906,11.9832469 C20.7375469,11.4612469 21.3011719,10.9451531 21.7697344,10.4411531 L21.7697344,10.4411531 Z M17.3588906,14.9509969 L17.3566406,14.9538094 C17.3909531,15.2392781 17.4196406,15.5095594 17.4441094,15.7683094 C17.8392656,15.7126219 18.2318906,15.6482156 18.6186094,15.5756531 C18.4433906,15.2302781 18.2555156,14.8798406 18.0561094,14.5271531 C17.8263281,14.6705906 17.5934531,14.8123406 17.3588906,14.9509969 L17.3588906,14.9509969 Z M18.3775781,11.8594969 C18.2310469,12.0906844 18.0817031,12.3201844 17.9298281,12.5463094 C18.0729844,12.7693406 18.2164219,12.9996844 18.3623906,13.2407156 C18.7021406,13.0137469 19.0272656,12.7856531 19.3360781,12.5586844 C19.0303594,12.3244031 18.7100156,12.0906844 18.3775781,11.8594969 L18.3775781,11.8594969 Z M17.4033281,10.1269969 L17.4030469,10.1295281 C17.6356406,10.2735281 17.8665469,10.4200594 18.0943594,10.5682781 C18.3002344,10.2169969 18.4931719,9.87077812 18.6723281,9.53271562 C18.2957344,9.45509063 17.9059219,9.38365313 17.5051406,9.31896562 C17.4750469,9.58474687 17.4407344,9.85446562 17.4024844,10.1261531 L17.4033281,10.1269969 Z M17.1923906,11.4418406 C17.2567969,11.5340906 17.3200781,11.6260594 17.3822344,11.7171844 C17.4618281,11.5951219 17.5408594,11.4724969 17.6187656,11.3490281 C17.4967031,11.2694344 17.3732344,11.1901219 17.2494844,11.1116531 C17.2303594,11.2241531 17.2117969,11.3341219 17.1923906,11.4418406 L17.1923906,11.4418406 Z M8.14120313,15.8040281 C8.28435938,15.8225906 8.42892188,15.8403094 8.57460938,15.8569031 C8.54367187,15.7500281 8.51301563,15.6423094 8.48320313,15.5337469 C8.38195313,15.4763719 8.28576563,15.4212469 8.19323438,15.3678094 C8.17439063,15.5146219 8.15695312,15.6603094 8.14120313,15.8040281 L8.14120313,15.8040281 Z M17.2233281,13.9666219 C17.3476406,13.8909656 17.4716719,13.8147469 17.5942969,13.7376844 C17.5180781,13.6108406 17.4421406,13.4873719 17.3670469,13.3664344 C17.3017969,13.4586844 17.2368281,13.5498094 17.1715781,13.6395281 C17.1892969,13.7483719 17.2064531,13.8574969 17.2233281,13.9666219 L17.2233281,13.9666219 Z M17.5957031,8.40771562 C18.1148906,8.49040312 18.6177656,8.58434062 19.0981406,8.68868438 C19.4615156,7.92959062 19.7464219,7.21943437 19.9492031,6.56693437 C19.2623906,6.60687187 18.5041406,6.71205937 17.6845781,6.88137187 C17.6710781,7.37327812 17.6412656,7.88402812 17.5957031,8.40771562 L17.5957031,8.40771562 Z M11.6523281,18.4908094 C11.4605156,18.2981531 11.2698281,18.1015594 11.0819531,17.9021531 C10.8130781,17.9983406 10.5568594,18.0866531 10.3087969,18.1693406 C10.4525156,18.5456531 10.6021406,18.9129656 10.7568281,19.2687469 C11.0622656,19.0156219 11.3612344,18.7557469 11.6523281,18.4908094 L11.6523281,18.4908094 Z M16.6099219,16.7945906 C16.3438594,16.8244031 16.0721719,16.8514031 15.7965469,16.8753094 L15.7940156,16.8786844 C15.7057031,17.1377156 15.6151406,17.3933719 15.5228906,17.6436844 C15.9096094,17.7665906 16.2901406,17.8785281 16.6619531,17.9786531 C16.6543594,17.5941844 16.6372031,17.1984656 16.6099219,16.7945906 L16.6099219,16.7945906 Z M10.1870156,16.9205906 C10.0756406,16.9135594 9.96454688,16.9059656 9.85429688,16.8975281 C9.90014063,17.0356219 9.94710938,17.1734344 9.99492188,17.3104031 C10.1296406,17.2656844 10.2668906,17.2189969 10.4077969,17.1703406 C10.3346719,17.0882156 10.2609844,17.0049656 10.1870156,16.9205906 L10.1870156,16.9205906 Z M8.11673438,21.1216219 C8.71495313,20.7905906 9.35142188,20.3675906 10.0177031,19.8579656 C9.81492188,19.4045906 9.62029688,18.9318094 9.43579688,18.4452469 C8.94135938,18.5929031 8.44804688,18.7253719 7.96148438,18.8418094 C7.96401563,19.6852781 8.01604688,20.4483094 8.11673438,21.1216219 L8.11673438,21.1216219 Z M16.6611094,18.9236531 C16.1846719,18.8007469 15.6938906,18.6581531 15.1941094,18.4984031 C15.0022969,18.9776531 14.7986719,19.4473406 14.5854844,19.9015594 C15.2410781,20.4213094 15.8696719,20.8564031 16.4636719,21.2006531 C16.5772969,20.5264969 16.6433906,19.7643094 16.6611094,18.9236531 L16.6611094,18.9236531 Z M8.05176562,16.7183719 C8.01745313,17.1208406 7.99298437,17.5145906 7.97835938,17.8968094 C8.35664063,17.8025906 8.73914063,17.6985281 9.12248438,17.5846219 C9.03276562,17.3275594 8.94642188,17.0676844 8.86429688,16.8078094 C8.59035937,16.7796844 8.31895313,16.7484656 8.05204688,16.7144344 L8.05176562,16.7183719 Z M12.6344531,17.5581844 C12.5332031,17.5159969 12.4288594,17.4724031 12.3233906,17.4271219 C12.2232656,17.4681844 12.1194844,17.5098094 12.0117656,17.5522781 C12.1138594,17.6577469 12.2162344,17.7620906 12.3191719,17.8650281 C12.4226719,17.7654656 12.5278594,17.6633719 12.6344531,17.5581844 L12.6344531,17.5581844 Z M14.8040156,16.9436531 C14.6932031,16.9495594 14.5821094,16.9551844 14.4704531,16.9602469 C14.3953594,17.0429344 14.3205469,17.1244969 14.2454531,17.2054969 C14.3841094,17.2561219 14.5207969,17.3053406 14.6557969,17.3528719 C14.7058594,17.2178719 14.7550781,17.0814656 14.8040156,16.9436531 L14.8040156,16.9436531 Z M14.3267344,18.2061844 C14.0783906,18.1184344 13.8241406,18.0256219 13.5653906,17.9280281 L13.5620156,17.9311219 L13.5566719,17.9288719 C13.3569844,18.1305281 13.1637656,18.3209344 12.9750469,18.5026219 C13.2706406,18.7813406 13.5653906,19.0474031 13.8573281,19.2991219 C14.0201719,18.9427781 14.1771094,18.5777156 14.3267344,18.2061844 L14.3267344,18.2061844 Z M10.4151094,6.78265312 C10.6617656,6.86984062 10.9157344,6.96237188 11.1801094,7.06193437 L11.1840469,7.05771563 L11.1879844,7.05912187 C11.3947031,6.85043438 11.5853906,6.66171562 11.7662344,6.48649687 C11.4697969,6.20665312 11.1750469,5.94087187 10.8847969,5.69112187 C10.7208281,6.04887187 10.5638906,6.41365313 10.4151094,6.78265312 L10.4151094,6.78265312 Z M13.0889531,6.49943437 C13.2796406,6.69152813 13.4692031,6.88699688 13.6559531,7.08415312 L13.6567969,7.08387187 L13.6593281,7.08668437 C13.9276406,6.99105938 14.1841406,6.90218438 14.4327656,6.81949687 C14.2893281,6.44346563 14.1394219,6.07615312 13.9847344,5.72037188 C13.6840781,5.97012188 13.3842656,6.23055937 13.0889531,6.49943437 L13.0889531,6.49943437 Z M14.3317969,7.81934062 C14.4054844,7.90202812 14.4791719,7.98555938 14.5525781,8.06937188 C14.6664844,8.07724688 14.7781406,8.08512187 14.8875469,8.09355937 C14.8411406,7.95405937 14.7938906,7.81568437 14.7460781,7.67871562 C14.6107969,7.72371562 14.4727031,7.77040312 14.3317969,7.81934062 L14.3317969,7.81934062 Z M16.6000781,9.18705938 C16.4529844,9.16765312 16.3087031,9.14993437 16.1669531,9.13334063 C16.1978906,9.24077813 16.2282656,9.34765313 16.2577969,9.45368438 C16.3522969,9.50712188 16.4490469,9.56224688 16.5483281,9.61962188 C16.5668906,9.47449687 16.5840469,9.33021562 16.6000781,9.18705938 L16.6000781,9.18705938 Z M8.08129688,6.06518437 C8.55435938,6.18724687 9.04485938,6.32955937 9.54745313,6.49043437 C9.73814063,6.01512188 9.94176563,5.54627813 10.1560781,5.08952812 C9.50217188,4.56921562 8.87329688,4.13384062 8.27845313,3.78874687 C8.16623438,4.45699687 8.10014063,5.21918437 8.08129688,6.06518437 L8.08129688,6.06518437 Z M12.1082344,7.43121563 C12.2114531,7.47396562 12.3146719,7.51727812 12.4181719,7.56171563 C12.5180156,7.52065312 12.6212344,7.47930937 12.7281094,7.43712187 C12.6265781,7.33221562 12.5242031,7.22815312 12.4215469,7.12465313 C12.3205781,7.22224688 12.2165156,7.32377812 12.1082344,7.43121563 L12.1082344,7.43121563 Z M8.13164063,8.19424687 C8.39714063,8.16443437 8.66882813,8.13743437 8.94473438,8.11380937 L8.94726562,8.10987187 C9.03642188,7.84774687 9.12698438,7.59209063 9.21839062,7.34487187 C8.82970313,7.22140312 8.44945313,7.10946562 8.07960938,7.00990312 C8.08692188,7.39352812 8.10435938,7.78952813 8.13164063,8.19424687 L8.13164063,8.19424687 Z M16.4926406,15.4462781 C16.3939219,15.5011219 16.2963281,15.5542781 16.1998594,15.6063094 C16.1692031,15.7112156 16.1368594,15.8183719 16.1025469,15.9289031 C16.2487969,15.9145594 16.3939219,15.8993719 16.5365156,15.8830594 C16.5235781,15.7413094 16.5089531,15.5959031 16.4926406,15.4462781 L16.4926406,15.4462781 Z M10.0852031,7.63568438 C10.2199219,7.68321562 10.3574531,7.73243437 10.4972344,7.78362187 C10.4227031,7.86405937 10.3481719,7.94505937 10.2739219,8.02662187 C10.1608594,8.03252812 10.0489219,8.03843437 9.93726563,8.04490312 C9.98620313,7.90596562 10.0357031,7.76955938 10.0852031,7.63568438 L10.0852031,7.63568438 Z" id="Fill-31" fill="#ffffff" mask="url(#mask-6)"></path>
                </g>
            </g>
        </g>
    </g>
</svg>
