<?xml version="1.0" encoding="UTF-8"?>
<svg width="83px" height="40px" viewBox="0 0 83 40" version="1.1" xmlns="http://www.w3.org/2000/svg" xmlns:xlink="http://www.w3.org/1999/xlink">
    <!-- Generator: Sketch 49.3 (51167) - http://www.bohemiancoding.com/sketch -->
    <title>bt_logo_white</title>
    <desc>Created with Sketch.</desc>
    <defs>
        <linearGradient x1="-113.859815%" y1="-212.498097%" x2="-11.2306411%" y2="-212.498097%" id="linearGradient-1">
            <stop stop-color="#94225F" offset="0%"></stop>
            <stop stop-color="#AC246B" offset="0%"></stop>
            <stop stop-color="#C22575" offset="1%"></stop>
            <stop stop-color="#D3277D" offset="1%"></stop>
            <stop stop-color="#DE2783" offset="1%"></stop>
            <stop stop-color="#E52886" offset="2%"></stop>
            <stop stop-color="#E72887" offset="4%"></stop>
            <stop stop-color="#E34290" offset="44%"></stop>
        </linearGradient>
        <radialGradient cx="-86.7775818%" cy="-131.19015%" fx="-86.7775818%" fy="-131.19015%" r="441.135802%" gradientTransform="translate(-0.867776,-1.311901),scale(1.000000,0.973281),translate(0.867776,1.311901)" id="radialGradient-2">
            <stop stop-color="#FCF19B" offset="0%"></stop>
            <stop stop-color="#FCF091" offset="3%"></stop>
            <stop stop-color="#FDEA69" offset="14%"></stop>
            <stop stop-color="#FEE548" offset="27%"></stop>
            <stop stop-color="#FEE12F" offset="39%"></stop>
            <stop stop-color="#FFDE1C" offset="52%"></stop>
            <stop stop-color="#FFDD12" offset="66%"></stop>
            <stop stop-color="#FFDC0E" offset="81%"></stop>
            <stop stop-color="#F1BD38" offset="100%"></stop>
        </radialGradient>
        <linearGradient x1="-91.1940299%" y1="-62.1534209%" x2="11.4776119%" y2="-62.1534209%" id="linearGradient-3">
            <stop stop-color="#FFDC0E" offset="0%"></stop>
            <stop stop-color="#FDD712" offset="19%"></stop>
            <stop stop-color="#F8C81D" offset="41%"></stop>
            <stop stop-color="#EFB02E" offset="66%"></stop>
            <stop stop-color="#E28E47" offset="91%"></stop>
            <stop stop-color="#DD8151" offset="100%"></stop>
        </linearGradient>
        <linearGradient x1="-10.8219967%" y1="6.52024044%" x2="17.5126168%" y2="-45.8935651%" id="linearGradient-4">
            <stop stop-color="#EA5D54" offset="1%"></stop>
            <stop stop-color="#E4504B" offset="19%"></stop>
            <stop stop-color="#D73234" offset="71%"></stop>
            <stop stop-color="#D2262C" offset="100%"></stop>
        </linearGradient>
        <radialGradient cx="36.5573801%" cy="81.1977681%" fx="36.5573801%" fy="81.1977681%" r="99.3561752%" gradientTransform="translate(0.365574,0.811978),scale(1.000000,0.762986),translate(-0.365574,-0.811978)" id="radialGradient-5">
            <stop stop-color="#CBC3E0" offset="0%"></stop>
            <stop stop-color="#B6AFD5" offset="13%"></stop>
            <stop stop-color="#928DC1" offset="38%"></stop>
            <stop stop-color="#7874B3" offset="62%"></stop>
            <stop stop-color="#6865AB" offset="83%"></stop>
            <stop stop-color="#6360A8" offset="100%"></stop>
        </radialGradient>
        <radialGradient cx="56.1237769%" cy="28.4237617%" fx="56.1237769%" fy="28.4237617%" r="109.463768%" gradientTransform="translate(0.561238,0.284238),scale(1.000000,0.658794),translate(-0.561238,-0.284238)" id="radialGradient-6">
            <stop stop-color="#58AFDE" offset="0%"></stop>
            <stop stop-color="#55A6D8" offset="13%"></stop>
            <stop stop-color="#4C8EC7" offset="35%"></stop>
            <stop stop-color="#3F6AAE" offset="60%"></stop>
            <stop stop-color="#214076" offset="92%"></stop>
        </radialGradient>
        <radialGradient cx="21.0184992%" cy="14.4596722%" fx="21.0184992%" fy="14.4596722%" r="154.453221%" gradientTransform="translate(0.210185,0.144597),scale(1.000000,0.571890),translate(-0.210185,-0.144597)" id="radialGradient-7">
            <stop stop-color="#5492C8" offset="0%"></stop>
            <stop stop-color="#528FC6" offset="5%"></stop>
            <stop stop-color="#3F68AD" offset="67%"></stop>
            <stop stop-color="#3759A4" offset="100%"></stop>
        </radialGradient>
        <linearGradient x1="49.9943395%" y1="102.079568%" x2="49.9943395%" y2="-7.28033765%" id="linearGradient-8">
            <stop stop-color="#12682F" offset="0%"></stop>
            <stop stop-color="#146E35" offset="4%"></stop>
            <stop stop-color="#1B894F" offset="28%"></stop>
            <stop stop-color="#209C63" offset="51%"></stop>
            <stop stop-color="#23A86E" offset="75%"></stop>
            <stop stop-color="#24AC72" offset="100%"></stop>
        </linearGradient>
        <linearGradient x1="36.1938348%" y1="100.224089%" x2="61.9627865%" y2="-27.5876522%" id="linearGradient-9">
            <stop stop-color="#055B5E" offset="11%"></stop>
            <stop stop-color="#037577" offset="21%"></stop>
            <stop stop-color="#018F90" offset="34%"></stop>
            <stop stop-color="#009F9F" offset="45%"></stop>
            <stop stop-color="#00A5A4" offset="54%"></stop>
            <stop stop-color="#20B6C2" offset="100%"></stop>
        </linearGradient>
    </defs>
    <g id="Page-1" stroke="none" stroke-width="1" fill="none" fill-rule="evenodd">
        <g id="bt_logo_white" fill-rule="nonzero">
            <path d="M60.8529412,1.28823529 C61.1,1.91764706 59.5117647,3.12352941 57.3235294,3.97647059 C55.1352941,4.82941176 53.1529412,5.01764706 52.9058824,4.38823529 C52.6588235,3.75882353 54.2470588,2.55882353 56.4352941,1.7 C58.6235294,0.841176471 60.5882353,0.658823529 60.8529412,1.28823529 Z" id="Shape" fill="url(#linearGradient-1)"></path>
            <path d="M81.3470588,16.3705882 C81.2352941,17.8823529 80.6058824,19.1117647 79.5,19.6705882 C77.3882353,20.7352941 74.3470588,18.9529412 72.7058824,15.7 C71.7632605,13.9835732 71.4728686,11.9842568 71.8882353,10.0705882 L72.4411765,10.5823529 C75.9352941,13.8235294 79.4294118,16.0411765 81.3470588,16.3705882 Z" id="Shape" fill="url(#radialGradient-2)"></path>
            <path d="M81.3470588,16.3705882 C79.4294118,16.0411765 75.9352941,13.8235294 72.4411765,10.5823529 L71.8882353,10.0705882 C72.098551,9.13918471 72.6953476,8.34131696 73.5294118,7.87647059 C75.6411765,6.81176471 78.6823529,8.59411765 80.3235294,11.8470588 C81.0516715,13.2397021 81.3967744,14.8007853 81.3235294,16.3705882 L81.3470588,16.3705882 Z" id="Shape" fill="url(#linearGradient-3)"></path>
            <path d="M81.3470588,16.3705882 C81.4203038,14.8007853 81.0752009,13.2397021 80.3470588,11.8470588 C78.7058824,8.59411765 75.6411765,6.81176471 73.5529412,7.87647059 C72.7099106,8.33625467 72.1039848,9.13487775 71.8882353,10.0705882 C67.6470588,6.01764706 65.1176471,1.97647059 66.1411765,0.870588235 C66.4507175,0.596579486 66.8746365,0.491148847 67.2764706,0.588235294 C74.715601,1.974361 80.7147672,7.47816227 82.7352941,14.7705882 C82.9271239,15.2092036 82.880485,15.7155684 82.6117647,16.1117647 C82.2559204,16.3964294 81.7814715,16.4846989 81.3470588,16.3470588 L81.3470588,16.3705882 Z" id="Shape" fill="url(#linearGradient-4)"></path>
            <path d="M63.4352941,31.6 C67.3206954,31.3669764 70.6549932,28.750526 71.8052899,25.0319966 C72.9555867,21.3134673 71.6810724,17.2713184 68.6059118,14.8851016 C65.5307512,12.4988849 61.298717,12.2681453 57.9823529,14.3058824 C57.9695051,14.321191 57.9695051,14.3435149 57.9823529,14.3588235 C58.9799964,15.7770055 59.8276794,17.2949494 60.5117647,18.8882353 C62.0647059,22.4764706 63.6235294,27.4294118 63.4058824,31.5647059 C63.4056391,31.5821146 63.4181269,31.5971 63.4352941,31.6 Z" id="Shape" fill="url(#radialGradient-5)"></path>
            <path d="M56.4235294,35.2235294 C58.5731712,34.5503918 60.7904976,34.1163955 63.0352941,33.9294118 C63.1058824,33.6235294 63.1705882,33.3 63.2235294,32.9529412 C63.2947516,32.5166516 63.3418818,32.0767692 63.3647059,31.6352941 L62.8529412,31.6352941 C58.6829135,31.6381332 55.0154086,28.8783394 53.8633248,24.8706166 C52.711241,20.8628938 54.3532887,16.5767845 57.8882353,14.3647059 C57.9010831,14.3493973 57.9010831,14.3270733 57.8882353,14.3117647 C56.5242065,12.3026756 54.7623713,10.5948967 52.7117647,9.29411765 C50.8647059,8.17647059 47.9117647,7.42352941 46,11.1764706 C44.6141836,13.9251996 43.898602,16.9628937 43.9117647,20.0411765 C43.9094688,27.6594499 48.2718779,34.6054659 55.1352941,37.9117647 C53.7764706,37.2294118 53.2764706,36.3882353 56.4235294,35.2235294 Z" id="Shape" fill="url(#radialGradient-6)"></path>
            <path d="M53.5294118,22.2705882 C53.5293056,24.8323452 54.5806279,27.2818739 56.4376226,29.0465749 C58.2946173,30.8112758 60.7945147,31.7364691 63.3529412,31.6058824 C63.3623018,31.6058824 63.371279,31.6021639 63.3778979,31.5955449 C63.3845168,31.588926 63.3882353,31.5799488 63.3882353,31.5705882 C63.6058824,27.4529412 62.0470588,22.4823529 60.4941176,18.8882353 C59.8099778,17.2931208 58.9623094,15.7732315 57.9647059,14.3529412 C57.9493973,14.3400934 57.9270733,14.3400934 57.9117647,14.3529412 C55.1855859,16.0619628 53.5300654,19.0530107 53.5294118,22.2705882 Z" id="Shape" fill="url(#radialGradient-7)"></path>
            <path d="M72.4058824,33.8588235 C70.1588235,33.4823529 66.4823529,33.5588235 63.0882353,33.9235294 C63.0773153,33.9172247 63.0638612,33.9172247 63.0529412,33.9235294 C61.7882353,39.4647059 58.3882353,39.2176471 56.4470588,38.4588235 C56,38.2823529 55.5941176,38.1058824 55.1647059,37.8705882 C57.8342976,39.1687134 60.7668686,39.8349323 63.7352941,39.8176471 C67.7603965,39.8172069 71.6890693,38.585648 74.9941176,36.2882353 C76.2235294,35.5117647 76.3941176,34.5235294 72.4058824,33.8588235 Z" id="Shape" fill="url(#linearGradient-8)"></path>
            <path d="M63.0470588,33.9764706 C63.0491973,33.9650262 63.0455544,33.9532635 63.0373219,33.945031 C63.0290895,33.9367986 63.0173267,33.9331556 63.0058824,33.9352941 C60.7714114,34.1238098 58.5642098,34.5557823 56.4235294,35.2235294 C53.2764706,36.4 53.7764706,37.2294118 55.1352941,37.9117647 C55.5647059,38.1176471 56,38.3117647 56.4470588,38.5 C58.3882353,39.2588235 61.7647059,39.4941176 63.0470588,33.9764706 Z" id="Shape" fill="url(#linearGradient-9)"></path>
            <path d="M17.5647059,21.3705882 C17.5518372,21.3649777 17.5435172,21.3522739 17.5435172,21.3382353 C17.5435172,21.3241967 17.5518372,21.3114929 17.5647059,21.3058824 C20.7235294,19.3176471 20.0764706,13.6117647 14.3176471,13.6117647 L1.81176471,13.6117647 C0.812495108,13.6149934 0.00322868308,14.4242598 0,15.4235294 L0,29.0176471 C0.00322868308,30.0169167 0.812495108,30.8261831 1.81176471,30.8294118 L12.6941176,30.8294118 C21.3294118,30.8294118 22.4470588,23.1764706 17.5647059,21.3705882 Z M6.54117647,16.3411765 C6.54117647,16.3411765 6.54117647,16.3 6.57647059,16.3 L13.2764706,16.3 C17.1176471,16.3 16.9235294,20.4705882 12.7647059,20.4705882 L6.57647059,20.4705882 C6.55697819,20.4705882 6.54117647,20.4547865 6.54117647,20.4352941 L6.54117647,16.3411765 Z M11.9764706,27.9470588 L6.57647059,27.9470588 C6.55697819,27.9470588 6.54117647,27.9312571 6.54117647,27.9117647 L6.54117647,23.2058824 C6.53888395,23.1959933 6.54185306,23.185621 6.54903115,23.1784429 C6.55620923,23.1712648 6.56658149,23.1682957 6.57647059,23.1705882 L13.5294118,23.1705882 C17.4411765,23.1823529 17.4764706,27.9470588 11.9764706,27.9470588 Z" id="Shape" fill="#FFFFFF"></path>
            <path d="M39.5,13.6117647 L21.3352941,13.6117647 C20.8156331,13.5982537 20.3202972,13.831738 20,14.2411765 C19.1705882,15.3529412 20.2764706,16.4705882 21.3294118,16.4705882 L27.3294118,16.4705882 C27.3489042,16.4705882 27.3647059,16.48639 27.3647059,16.5058824 L27.3647059,29.0176471 C27.3647059,29.4981569 27.5555877,29.9589864 27.8953595,30.2987582 C28.2351313,30.63853 28.6959607,30.8294118 29.1764706,30.8294118 L31.9647059,30.8294118 C32.939326,30.8294118 33.7294118,30.039326 33.7294118,29.0647059 L33.7294118,16.5235294 C33.7294118,16.5141688 33.7331302,16.5051916 33.7397492,16.4985727 C33.7463681,16.4919538 33.7553453,16.4882353 33.7647059,16.4882353 L39.4352941,16.4882353 C40.0426184,16.5043988 40.6114777,16.1918634 40.9235294,15.6705882 C41.5176471,14.6235294 40.4882353,13.6117647 39.5,13.6117647 Z" id="Shape" fill="#FFFFFF"></path>
        </g>
    </g>
</svg>